<svg viewBox="0 0 120 120" width="100%" height="100%" aria-hidden="true">
  <rect x="0" y="0" width="120" height="120" fill="#E9DFC4"/>
  <rect x="0" y="88" width="120" height="32" fill="#C7B78E"/>
  <path d="M18 40 L40 38 L41 90 L17 91 Z" fill="#A89A80" stroke="#3D3323" stroke-width="2"/>
  <path d="M34 39 L40 38 L41 90 L35 90 Z" fill="#6B5D48"/>
  <path d="M80 32 L102 34 L103 90 L79 91 Z" fill="#A89A80" stroke="#3D3323" stroke-width="2"/>
  <path d="M96 33 L102 34 L103 90 L97 90 Z" fill="#6B5D48"/>
  <path d="M44 90 L44 58 Q60 42 76 58 L76 90 Z" fill="#3D3323"/>
  <ellipse class="bd-arch" cx="60" cy="72" rx="10" ry="16" fill="#E8934A" opacity="0"/>
  <path d="M20 88 C24 70,16 58,26 44" fill="none" stroke="#4E6E3B" stroke-width="4" stroke-linecap="round"/>
  <circle cx="24" cy="60" r="4" fill="#7A9B5C"/><circle cx="22" cy="76" r="3.5" fill="#7A9B5C"/>
  <path d="M60 26 l4 6 -4 6 -4 -6 z" fill="#8E7BC4" opacity="0.8"/>
  <path d="M74 20 l3 4.5 -3 4.5 -3 -4.5 z" fill="#8E7BC4" opacity="0.5"/>
</svg>
